<?xml version="1.0" standalone="no"?>
<!DOCTYPE svg PUBLIC "-//W3C//DTD SVG 20010904//EN"
 "http://www.w3.org/TR/2001/REC-SVG-20010904/DTD/svg10.dtd">
<svg version="1.0" xmlns="http://www.w3.org/2000/svg"
 width="512.000000pt" height="512.000000pt" viewBox="0 0 512.000000 512.000000"
 preserveAspectRatio="xMidYMid meet">
<metadata>
Created by potrace 1.11, written by Peter Selinger 2001-2013
</metadata>
<g transform="translate(0.000000,512.000000) scale(0.100000,-0.100000)"
fill="#000000" stroke="none">
<path d="M2658 4815 c-2 -2 -25 -5 -53 -9 -62 -6 -94 -13 -165 -32 -30 -8 -62
-16 -70 -18 -8 -3 -58 -20 -110 -39 -332 -122 -754 -362 -1125 -640 -340 -255
-560 -500 -647 -722 -27 -69 -31 -93 -32 -177 l-1 -96 179 -359 c99 -197 181
-359 182 -361 7 -13 150 -17 229 -7 28 4 86 16 130 26 44 11 87 22 95 24 55
13 267 92 370 137 168 74 551 279 626 335 17 13 34 23 37 23 9 0 189 123 282
193 176 132 349 292 475 437 36 41 68 77 71 80 10 9 114 154 154 215 44 67
145 262 145 280 0 9 -137 210 -226 330 -8 11 -58 81 -110 155 -102 145 -141
180 -228 205 -45 13 -200 28 -208 20z m-50 -551 c43 -49 32 -79 -66 -174 -48
-47 -121 -112 -162 -145 -41 -33 -77 -62 -80 -65 -37 -41 -360 -262 -555 -380
-49 -30 -97 -59 -106 -65 -9 -5 -38 -22 -65 -37 -27 -15 -65 -36 -84 -47 -19
-11 -102 -54 -183 -96 -161 -82 -182 -85 -224 -38 -27 28 -30 69 -8 100 9 12
75 52 147 88 361 182 847 495 1063 686 58 51 140 125 175 158 60 56 107 61
148 15z"/>
<path d="M4240 4440 c-25 -4 -65 -11 -90 -15 -143 -21 -590 -160 -590 -183 0
-7 70 -113 80 -122 5 -4 114 -158 269 -380 25 -36 49 -69 54 -75 36 -45 105
-150 102 -155 -3 -4 -7 -25 -11 -46 -17 -108 -107 -315 -212 -484 -319 -518
-868 -960 -1632 -1313 -162 -75 -437 -169 -570 -194 -211 -40 -380 -37 -523 7
l-62 19 -224 448 c-123 247 -225 450 -227 452 -3 3 -55 -52 -144 -154 -64 -74
-171 -223 -237 -330 -211 -343 -273 -691 -175 -975 91 -261 287 -448 593 -563
213 -80 492 -94 779 -37 30 6 67 13 82 15 15 3 39 10 54 15 15 6 47 15 73 21
79 18 310 109 466 183 311 150 531 289 940 595 130 97 461 360 530 422 17 14
73 63 125 109 233 202 471 436 689 675 49 53 230 277 309 380 64 83 190 294
252 420 64 131 131 300 144 367 2 7 6 31 11 53 4 22 10 49 12 60 9 44 11 263
3 310 -5 28 -11 66 -15 85 -21 116 -125 242 -256 310 -124 64 -207 82 -394 85
-88 1 -180 -1 -205 -5z"/>
<path d="M3735 3548 c-104 -201 -263 -413 -460 -612 -131 -132 -343 -313 -467
-396 -178 -122 -299 -199 -383 -246 -27 -15 -58 -34 -67 -42 -10 -8 -18 -11
-18 -7 0 4 -8 2 -17 -6 -57 -46 -399 -210 -596 -286 -214 -82 -367 -121 -554
-139 -40 -3 -73 -9 -73 -13 0 -3 18 -40 39 -81 35 -69 41 -76 82 -88 47 -14
193 -18 270 -8 160 20 404 93 577 172 29 13 55 24 57 24 8 0 274 133 340 169
139 77 314 183 325 197 7 7 16 14 21 14 13 0 164 109 279 200 343 274 631 642
754 966 41 108 41 109 -12 185 -26 38 -50 69 -54 69 -3 0 -23 -33 -43 -72z"/>
</g>
</svg>
